<svg width="68" height="68" viewBox="0 0 68 68" fill="none" xmlns="http://www.w3.org/2000/svg">
<g id="Group">
<path id="Vector" d="M33.9994 0.666748C27.4067 0.666748 20.962 2.62171 15.4804 6.28443C9.99872 9.94714 5.7263 15.1531 3.20338 21.244C0.680458 27.3348 0.0203473 34.0371 1.30652 40.5031C2.5927 46.9691 5.76739 52.9086 10.4291 57.5703C15.0909 62.2321 21.0303 65.4068 27.4964 66.6929C33.9624 67.9791 40.6646 67.319 46.7555 64.7961C52.8463 62.2732 58.0523 58.0007 61.715 52.5191C65.3777 47.0375 67.3327 40.5928 67.3327 34.0001C67.323 25.1625 63.808 16.6897 57.5589 10.4406C51.3098 4.19146 42.8369 0.676453 33.9994 0.666748ZM33.9994 60.6668C28.7252 60.6668 23.5695 59.1028 19.1842 56.1726C14.7988 53.2424 11.3809 49.0777 9.36258 44.205C7.34424 39.3323 6.81615 33.9705 7.84509 28.7977C8.87403 23.6248 11.4138 18.8733 15.1432 15.1439C18.8726 11.4145 23.6241 8.87475 28.797 7.84581C33.9698 6.81687 39.3316 7.34496 44.2043 9.36329C49.077 11.3816 53.2417 14.7996 56.1719 19.1849C59.1021 23.5702 60.666 28.7259 60.666 34.0001C60.6581 41.0701 57.846 47.8482 52.8468 52.8475C47.8475 57.8467 41.0694 60.6588 33.9994 60.6668Z" fill="#C5010A"/>
<path id="Vector_2" d="M24 15.4868V52.5135L53.6233 34.0002L24 15.4868ZM30.6667 27.5135L41.0433 34.0002L30.6667 40.4868V27.5135Z" fill="#C5010A"/>
</g>
</svg>
